<svg xmlns="http://www.w3.org/2000/svg" xmlns:xlink="http://www.w3.org/1999/xlink" contentStyleType="text/css" data-diagram-type="ACTIVITY" height="501px" preserveAspectRatio="none" style="width:934px;height:501px;background:#FFFFFF;" version="1.1" viewBox="0 0 934 501" width="934px" zoomAndPan="magnify"><?plantuml 1.2026.7beta1?><defs/><g><g class="title" data-source-line="1"><text fill="#000000" font-family="sans-serif" font-size="14" font-weight="700" lengthAdjust="spacing" textLength="274.5859" x="329.0081" y="32.9951">Activity Diagram - Daftar Bawahan</text></g><rect fill="#2C3E50" height="20.9531" style="stroke:#2C3E50;stroke-width:1;" width="887.6021" x="20" y="55.042"/><ellipse cx="242.9355" cy="90.9951" fill="#222222" rx="10" ry="10" style="stroke:#222222;stroke-width:1;"/><rect fill="#F1F1F1" height="33.9688" rx="12.5" ry="12.5" style="stroke:#181818;stroke-width:0.5;" width="217.8066" x="134.0322" y="120.9951"/><text fill="#000000" font-family="sans-serif" font-size="12" lengthAdjust="spacing" textLength="197.8066" x="144.0322" y="142.1338">Membuka menu Daftar Bawahan</text><rect fill="#F1F1F1" height="33.9688" rx="12.5" ry="12.5" style="stroke:#181818;stroke-width:0.5;" width="433.8711" x="26" y="228.9326"/><text fill="#000000" font-family="sans-serif" font-size="12" lengthAdjust="spacing" textLength="413.8711" x="36" y="250.0713">Meninjau daftar bawahan yang berada di bawah tanggung jawabnya</text><rect fill="#F1F1F1" height="33.9688" rx="12.5" ry="12.5" style="stroke:#181818;stroke-width:0.5;" width="147.4473" x="169.2119" y="336.8701"/><text fill="#000000" font-family="sans-serif" font-size="12" lengthAdjust="spacing" textLength="127.4473" x="179.2119" y="358.0088">Memilih aksi lanjutan</text><line style="stroke:#000000;stroke-width:2;" x1="20" x2="20" y1="55.042" y2="466.8076"/><rect fill="#F1F1F1" height="33.9688" rx="12.5" ry="12.5" style="stroke:#181818;stroke-width:0.5;" width="354.5117" x="508.4141" y="174.9639"/><text fill="#000000" font-family="sans-serif" font-size="12" lengthAdjust="spacing" textLength="334.5117" x="518.4141" y="196.1025">Menampilkan kartu daftar bawahan dan ringkasan data</text><rect fill="#F1F1F1" height="33.9688" rx="12.5" ry="12.5" style="stroke:#181818;stroke-width:0.5;" width="377.8203" x="496.7598" y="282.9014"/><text fill="#000000" font-family="sans-serif" font-size="12" lengthAdjust="spacing" textLength="357.8203" x="506.7598" y="304.04">Menampilkan detail singkat dan aksi penilaian atau riwayat</text><rect fill="#F1F1F1" height="33.9688" rx="12.5" ry="12.5" style="stroke:#181818;stroke-width:0.5;" width="431.5977" x="469.8711" y="390.8389"/><text fill="#000000" font-family="sans-serif" font-size="12" lengthAdjust="spacing" textLength="411.5977" x="479.8711" y="411.9775">Mengarahkan ke halaman penilaian bawahan atau riwayat penilaian</text><ellipse cx="685.6699" cy="455.8076" fill="none" rx="11" ry="11" style="stroke:#222222;stroke-width:1;"/><ellipse cx="685.6699" cy="455.8076" fill="#222222" rx="6" ry="6" style="stroke:#222222;stroke-width:1;"/><line style="stroke:#000000;stroke-width:2;" x1="463.8711" x2="463.8711" y1="55.042" y2="466.8076"/><line style="stroke:#000000;stroke-width:2;" x1="905.4688" x2="905.4688" y1="55.042" y2="466.8076"/><line style="stroke:#34495E;stroke-width:1;" x1="242.9355" x2="242.9355" y1="100.9951" y2="120.9951"/><polygon fill="#34495E" points="238.9355,110.9951,242.9355,120.9951,246.9355,110.9951,242.9355,114.9951" style="stroke:#34495E;stroke-width:1;stroke-linejoin:miter;stroke-miterlimit:10;"/><line style="stroke:#34495E;stroke-width:1;" x1="685.6699" x2="685.6699" y1="424.8076" y2="444.8076"/><polygon fill="#34495E" points="681.6699,434.8076,685.6699,444.8076,689.6699,434.8076,685.6699,438.8076" style="stroke:#34495E;stroke-width:1;stroke-linejoin:miter;stroke-miterlimit:10;"/><line style="stroke:#34495E;stroke-width:1;" x1="242.9355" x2="242.9355" y1="154.9639" y2="159.9639"/><line style="stroke:#34495E;stroke-width:1;" x1="242.9355" x2="685.6699" y1="159.9639" y2="159.9639"/><line style="stroke:#34495E;stroke-width:1;" x1="685.6699" x2="685.6699" y1="159.9639" y2="174.9639"/><polygon fill="#34495E" points="681.6699,164.9639,685.6699,174.9639,689.6699,164.9639,685.6699,168.9639" style="stroke:#34495E;stroke-width:1;stroke-linejoin:miter;stroke-miterlimit:10;"/><line style="stroke:#34495E;stroke-width:1;" x1="685.6699" x2="685.6699" y1="208.9326" y2="213.9326"/><line style="stroke:#34495E;stroke-width:1;" x1="685.6699" x2="242.9355" y1="213.9326" y2="213.9326"/><line style="stroke:#34495E;stroke-width:1;" x1="242.9355" x2="242.9355" y1="213.9326" y2="228.9326"/><polygon fill="#34495E" points="238.9355,218.9326,242.9355,228.9326,246.9355,218.9326,242.9355,222.9326" style="stroke:#34495E;stroke-width:1;stroke-linejoin:miter;stroke-miterlimit:10;"/><line style="stroke:#34495E;stroke-width:1;" x1="242.9355" x2="242.9355" y1="262.9014" y2="267.9014"/><line style="stroke:#34495E;stroke-width:1;" x1="242.9355" x2="685.6699" y1="267.9014" y2="267.9014"/><line style="stroke:#34495E;stroke-width:1;" x1="685.6699" x2="685.6699" y1="267.9014" y2="282.9014"/><polygon fill="#34495E" points="681.6699,272.9014,685.6699,282.9014,689.6699,272.9014,685.6699,276.9014" style="stroke:#34495E;stroke-width:1;stroke-linejoin:miter;stroke-miterlimit:10;"/><line style="stroke:#34495E;stroke-width:1;" x1="685.6699" x2="685.6699" y1="316.8701" y2="321.8701"/><line style="stroke:#34495E;stroke-width:1;" x1="685.6699" x2="242.9355" y1="321.8701" y2="321.8701"/><line style="stroke:#34495E;stroke-width:1;" x1="242.9355" x2="242.9355" y1="321.8701" y2="336.8701"/><polygon fill="#34495E" points="238.9355,326.8701,242.9355,336.8701,246.9355,326.8701,242.9355,330.8701" style="stroke:#34495E;stroke-width:1;stroke-linejoin:miter;stroke-miterlimit:10;"/><line style="stroke:#34495E;stroke-width:1;" x1="242.9355" x2="242.9355" y1="370.8389" y2="375.8389"/><line style="stroke:#34495E;stroke-width:1;" x1="242.9355" x2="685.6699" y1="375.8389" y2="375.8389"/><line style="stroke:#34495E;stroke-width:1;" x1="685.6699" x2="685.6699" y1="375.8389" y2="390.8389"/><polygon fill="#34495E" points="681.6699,380.8389,685.6699,390.8389,689.6699,380.8389,685.6699,384.8389" style="stroke:#34495E;stroke-width:1;stroke-linejoin:miter;stroke-miterlimit:10;"/><text fill="#FFFFFF" font-family="sans-serif" font-size="18" font-weight="700" lengthAdjust="spacing" textLength="101.7598" x="191.0557" y="71.75">Pengguna</text><text fill="#FFFFFF" font-family="sans-serif" font-size="18" font-weight="700" lengthAdjust="spacing" textLength="69.416" x="649.9619" y="71.75">Sistem</text><?plantuml-src VP7TQiCm38NlynI2NGz6VnXThzQ_ky6WVG6bzXmrjXmSPI6GXv-Jh3Iaw-wYw3iwEhAGM0tlPw5laWPsX2QWWsVOuPTWW0tMc24dPKvSODSwrkGiijxue7JOUki3f1RF-KFcbD4vPrsMCFk3ENKRRABU15-n6WO-pRRp_VBb4NxmB0DOPoJwF-meJGoOUgj6r3LlZEiyg_-YJD7feeVL_dLr60j2yFLlSxvOh9Rx96a_DHjJCRP96QygoTk7TccL8pZDrUJMwwGzKYdQjHt6w0goEJBaKLY16jXqO6F948XDZcLV2Qx7Rjq0uWlUwHfa0waEg10K3Rz1iDSPkCGovGOVhQAq85aeUsFfby2y92YYcqNgIecUWMfiKAORERAK3OBuL9TAxZARUCcipwmXGuikVjvcNpECFMxjTJonBtu0?></g><line style="stroke:#000000;stroke-width:2;" x1="20" x2="20" y1="466.808" y2="496.808"/><line style="stroke:#000000;stroke-width:2;" x1="463.871" x2="463.871" y1="466.808" y2="496.808"/><line style="stroke:#000000;stroke-width:2;" x1="905.469" x2="905.469" y1="466.808" y2="496.808"/><line style="stroke:#000000;stroke-width:2;" x1="20" x2="905.469" y1="496.808" y2="496.808"/></svg>