<svg xmlns="http://www.w3.org/2000/svg" xmlns:xlink="http://www.w3.org/1999/xlink" contentStyleType="text/css" data-diagram-type="ACTIVITY" height="477px" preserveAspectRatio="none" style="width:766px;height:477px;background:#FFFFFF;" version="1.1" viewBox="0 0 766 477" width="766px" zoomAndPan="magnify"><?plantuml 1.2026.7beta1?><defs/><g><g class="title" data-source-line="1"><text fill="#000000" font-family="sans-serif" font-size="14" font-weight="700" lengthAdjust="spacing" textLength="233.0098" x="265.5588" y="32.9951">Activity Diagram - Dashboard</text></g><rect fill="#2C3E50" height="20.9531" style="stroke:#2C3E50;stroke-width:1;" width="719.1274" x="20" y="55.042"/><ellipse cx="193.2568" cy="90.9951" fill="#222222" rx="10" ry="10" style="stroke:#222222;stroke-width:1;"/><rect fill="#F1F1F1" height="33.9688" rx="12.5" ry="12.5" style="stroke:#181818;stroke-width:0.5;" width="202.5664" x="91.9736" y="120.9951"/><text fill="#000000" font-family="sans-serif" font-size="12" lengthAdjust="spacing" textLength="182.5664" x="101.9736" y="142.1338">Membuka halaman dashboard</text><rect fill="#F1F1F1" height="33.9688" rx="12.5" ry="12.5" style="stroke:#181818;stroke-width:0.5;" width="334.5137" x="26" y="282.9014"/><text fill="#000000" font-family="sans-serif" font-size="12" lengthAdjust="spacing" textLength="314.5137" x="36" y="304.04">Melihat dashboard dan memilih menu yang tersedia</text><line style="stroke:#000000;stroke-width:2;" x1="20" x2="20" y1="55.042" y2="412.8389"/><rect fill="#F1F1F1" height="33.9688" rx="12.5" ry="12.5" style="stroke:#181818;stroke-width:0.5;" width="337.3789" x="383.0645" y="174.9639"/><text fill="#000000" font-family="sans-serif" font-size="12" lengthAdjust="spacing" textLength="317.3789" x="393.0645" y="196.1025">Memuat data dashboard sesuai hak akses pengguna</text><rect fill="#F1F1F1" height="33.9688" rx="12.5" ry="12.5" style="stroke:#181818;stroke-width:0.5;" width="362.4805" x="370.5137" y="228.9326"/><text fill="#000000" font-family="sans-serif" font-size="12" lengthAdjust="spacing" textLength="342.4805" x="380.5137" y="250.0713">Menampilkan widget ringkasan, tabel terbaru, dan grafik</text><rect fill="#F1F1F1" height="33.9688" rx="12.5" ry="12.5" style="stroke:#181818;stroke-width:0.5;" width="353.6445" x="374.9316" y="336.8701"/><text fill="#000000" font-family="sans-serif" font-size="12" lengthAdjust="spacing" textLength="333.6445" x="384.9316" y="358.0088">Membuka halaman atau detail sesuai pilihan pengguna</text><ellipse cx="551.7539" cy="401.8389" fill="none" rx="11" ry="11" style="stroke:#222222;stroke-width:1;"/><ellipse cx="551.7539" cy="401.8389" fill="#222222" rx="6" ry="6" style="stroke:#222222;stroke-width:1;"/><line style="stroke:#000000;stroke-width:2;" x1="364.5137" x2="364.5137" y1="55.042" y2="412.8389"/><line style="stroke:#000000;stroke-width:2;" x1="736.9941" x2="736.9941" y1="55.042" y2="412.8389"/><line style="stroke:#34495E;stroke-width:1;" x1="193.2568" x2="193.2568" y1="100.9951" y2="120.9951"/><polygon fill="#34495E" points="189.2568,110.9951,193.2568,120.9951,197.2568,110.9951,193.2568,114.9951" style="stroke:#34495E;stroke-width:1;stroke-linejoin:miter;stroke-miterlimit:10;"/><line style="stroke:#34495E;stroke-width:1;" x1="551.7539" x2="551.7539" y1="208.9326" y2="228.9326"/><polygon fill="#34495E" points="547.7539,218.9326,551.7539,228.9326,555.7539,218.9326,551.7539,222.9326" style="stroke:#34495E;stroke-width:1;stroke-linejoin:miter;stroke-miterlimit:10;"/><line style="stroke:#34495E;stroke-width:1;" x1="551.7539" x2="551.7539" y1="370.8389" y2="390.8389"/><polygon fill="#34495E" points="547.7539,380.8389,551.7539,390.8389,555.7539,380.8389,551.7539,384.8389" style="stroke:#34495E;stroke-width:1;stroke-linejoin:miter;stroke-miterlimit:10;"/><line style="stroke:#34495E;stroke-width:1;" x1="193.2568" x2="193.2568" y1="154.9639" y2="159.9639"/><line style="stroke:#34495E;stroke-width:1;" x1="193.2568" x2="551.7539" y1="159.9639" y2="159.9639"/><line style="stroke:#34495E;stroke-width:1;" x1="551.7539" x2="551.7539" y1="159.9639" y2="174.9639"/><polygon fill="#34495E" points="547.7539,164.9639,551.7539,174.9639,555.7539,164.9639,551.7539,168.9639" style="stroke:#34495E;stroke-width:1;stroke-linejoin:miter;stroke-miterlimit:10;"/><line style="stroke:#34495E;stroke-width:1;" x1="551.7539" x2="551.7539" y1="262.9014" y2="267.9014"/><line style="stroke:#34495E;stroke-width:1;" x1="551.7539" x2="193.2568" y1="267.9014" y2="267.9014"/><line style="stroke:#34495E;stroke-width:1;" x1="193.2568" x2="193.2568" y1="267.9014" y2="282.9014"/><polygon fill="#34495E" points="189.2568,272.9014,193.2568,282.9014,197.2568,272.9014,193.2568,276.9014" style="stroke:#34495E;stroke-width:1;stroke-linejoin:miter;stroke-miterlimit:10;"/><line style="stroke:#34495E;stroke-width:1;" x1="193.2568" x2="193.2568" y1="316.8701" y2="321.8701"/><line style="stroke:#34495E;stroke-width:1;" x1="193.2568" x2="551.7539" y1="321.8701" y2="321.8701"/><line style="stroke:#34495E;stroke-width:1;" x1="551.7539" x2="551.7539" y1="321.8701" y2="336.8701"/><polygon fill="#34495E" points="547.7539,326.8701,551.7539,336.8701,555.7539,326.8701,551.7539,330.8701" style="stroke:#34495E;stroke-width:1;stroke-linejoin:miter;stroke-miterlimit:10;"/><text fill="#FFFFFF" font-family="sans-serif" font-size="18" font-weight="700" lengthAdjust="spacing" textLength="101.7598" x="141.377" y="71.75">Pengguna</text><text fill="#FFFFFF" font-family="sans-serif" font-size="18" font-weight="700" lengthAdjust="spacing" textLength="69.416" x="516.0459" y="71.75">Sistem</text><?plantuml-src VP7BQWCn34NtynM2RbCeUL3Ih9hNhb18Va0JgpF2hy6MEmJcu-j9CYGDRLR6qj7LlRQm68BtW_0ton7MZ5L02y-mnbYN7eCgecRNO5_TjMmDEbhwe2YilF41IeC7_I-ph_cW7SK8up-OVRzycUUhu9DJPy6dyMgocRtyXs-zapFOrYpq2Dl9CMShlRdDC4JDIQrtwb6KU_JUw7Q-UPrlRmT2yEsbEPbEvxDDKNIVvAegEUoAA1YaUFiWMoQDKAD1YmxKyDABejjn5BBT2KeekITu1I1IJCXvKWFgV87c8hxe9npQXetEaYshYWG2kqfZH3S2mP8C28KIGnfbIGVvexzOBsuTPX73zMdliB8dBLdEzNow14TqLIyKIJ7UMVwLArjFe4YGpM2ywMLowsexYcz-0000?></g><line style="stroke:#000000;stroke-width:2;" x1="20" x2="20" y1="412.839" y2="442.839"/><line style="stroke:#000000;stroke-width:2;" x1="364.514" x2="364.514" y1="412.839" y2="442.839"/><line style="stroke:#000000;stroke-width:2;" x1="736.994" x2="736.994" y1="412.839" y2="442.839"/><line style="stroke:#000000;stroke-width:2;" x1="20" x2="736.994" y1="442.839" y2="442.839"/><line style="stroke:#000000;stroke-width:2;" x1="20" x2="20" y1="442.839" y2="472.839"/><line style="stroke:#000000;stroke-width:2;" x1="364.514" x2="364.514" y1="442.839" y2="472.839"/><line style="stroke:#000000;stroke-width:2;" x1="736.994" x2="736.994" y1="442.839" y2="472.839"/><line style="stroke:#000000;stroke-width:2;" x1="20" x2="736.994" y1="472.839" y2="472.839"/></svg>