<svg xmlns="http://www.w3.org/2000/svg" xmlns:xlink="http://www.w3.org/1999/xlink" contentStyleType="text/css" data-diagram-type="ACTIVITY" height="501px" preserveAspectRatio="none" style="width:760px;height:501px;background:#FFFFFF;" version="1.1" viewBox="0 0 760 501" width="760px" zoomAndPan="magnify"><?plantuml 1.2026.7beta1?><defs/><g><g class="title" data-source-line="1"><text fill="#000000" font-family="sans-serif" font-size="14" font-weight="700" lengthAdjust="spacing" textLength="294.1504" x="232.094" y="32.9951">Activity Diagram - Atur Relasi Atasan</text></g><rect fill="#2C3E50" height="20.9531" style="stroke:#2C3E50;stroke-width:1;" width="713.3384" x="20" y="55.042"/><ellipse cx="172.8545" cy="90.9951" fill="#222222" rx="10" ry="10" style="stroke:#222222;stroke-width:1;"/><rect fill="#F1F1F1" height="33.9688" rx="12.5" ry="12.5" style="stroke:#181818;stroke-width:0.5;" width="202.1504" x="71.7793" y="120.9951"/><text fill="#000000" font-family="sans-serif" font-size="12" lengthAdjust="spacing" textLength="182.1504" x="81.7793" y="142.1338">Membuka menu Relasi Atasan</text><rect fill="#F1F1F1" height="33.9688" rx="12.5" ry="12.5" style="stroke:#181818;stroke-width:0.5;" width="293.709" x="26" y="228.9326"/><text fill="#000000" font-family="sans-serif" font-size="12" lengthAdjust="spacing" textLength="273.709" x="36" y="250.0713">Memilih karyawan yang akan diatur relasinya</text><rect fill="#F1F1F1" height="33.9688" rx="12.5" ry="12.5" style="stroke:#181818;stroke-width:0.5;" width="271.6367" x="37.0361" y="336.8701"/><text fill="#000000" font-family="sans-serif" font-size="12" lengthAdjust="spacing" textLength="251.6367" x="47.0361" y="358.0088">Menetapkan atasan lalu menekan simpan</text><line style="stroke:#000000;stroke-width:2;" x1="20" x2="20" y1="55.042" y2="466.8076"/><rect fill="#F1F1F1" height="33.9688" rx="12.5" ry="12.5" style="stroke:#181818;stroke-width:0.5;" width="325.2852" x="365.8145" y="174.9639"/><text fill="#000000" font-family="sans-serif" font-size="12" lengthAdjust="spacing" textLength="305.2852" x="375.8145" y="196.1025">Menampilkan daftar karyawan dan relasi yang ada</text><rect fill="#F1F1F1" height="33.9688" rx="12.5" ry="12.5" style="stroke:#181818;stroke-width:0.5;" width="397.4961" x="329.709" y="282.9014"/><text fill="#000000" font-family="sans-serif" font-size="12" lengthAdjust="spacing" textLength="377.4961" x="339.709" y="304.04">Menampilkan detail karyawan dan daftar atasan yang tersedia</text><rect fill="#F1F1F1" height="33.9688" rx="12.5" ry="12.5" style="stroke:#181818;stroke-width:0.5;" width="314.5977" x="371.1582" y="390.8389"/><text fill="#000000" font-family="sans-serif" font-size="12" lengthAdjust="spacing" textLength="294.5977" x="381.1582" y="411.9775">Menyimpan relasi dan memperbarui daftar relasi</text><ellipse cx="528.457" cy="455.8076" fill="none" rx="11" ry="11" style="stroke:#222222;stroke-width:1;"/><ellipse cx="528.457" cy="455.8076" fill="#222222" rx="6" ry="6" style="stroke:#222222;stroke-width:1;"/><line style="stroke:#000000;stroke-width:2;" x1="323.709" x2="323.709" y1="55.042" y2="466.8076"/><line style="stroke:#000000;stroke-width:2;" x1="731.2051" x2="731.2051" y1="55.042" y2="466.8076"/><line style="stroke:#34495E;stroke-width:1;" x1="172.8545" x2="172.8545" y1="100.9951" y2="120.9951"/><polygon fill="#34495E" points="168.8545,110.9951,172.8545,120.9951,176.8545,110.9951,172.8545,114.9951" style="stroke:#34495E;stroke-width:1;stroke-linejoin:miter;stroke-miterlimit:10;"/><line style="stroke:#34495E;stroke-width:1;" x1="528.457" x2="528.457" y1="424.8076" y2="444.8076"/><polygon fill="#34495E" points="524.457,434.8076,528.457,444.8076,532.457,434.8076,528.457,438.8076" style="stroke:#34495E;stroke-width:1;stroke-linejoin:miter;stroke-miterlimit:10;"/><line style="stroke:#34495E;stroke-width:1;" x1="172.8545" x2="172.8545" y1="154.9639" y2="159.9639"/><line style="stroke:#34495E;stroke-width:1;" x1="172.8545" x2="528.457" y1="159.9639" y2="159.9639"/><line style="stroke:#34495E;stroke-width:1;" x1="528.457" x2="528.457" y1="159.9639" y2="174.9639"/><polygon fill="#34495E" points="524.457,164.9639,528.457,174.9639,532.457,164.9639,528.457,168.9639" style="stroke:#34495E;stroke-width:1;stroke-linejoin:miter;stroke-miterlimit:10;"/><line style="stroke:#34495E;stroke-width:1;" x1="528.457" x2="528.457" y1="208.9326" y2="213.9326"/><line style="stroke:#34495E;stroke-width:1;" x1="528.457" x2="172.8545" y1="213.9326" y2="213.9326"/><line style="stroke:#34495E;stroke-width:1;" x1="172.8545" x2="172.8545" y1="213.9326" y2="228.9326"/><polygon fill="#34495E" points="168.8545,218.9326,172.8545,228.9326,176.8545,218.9326,172.8545,222.9326" style="stroke:#34495E;stroke-width:1;stroke-linejoin:miter;stroke-miterlimit:10;"/><line style="stroke:#34495E;stroke-width:1;" x1="172.8545" x2="172.8545" y1="262.9014" y2="267.9014"/><line style="stroke:#34495E;stroke-width:1;" x1="172.8545" x2="528.457" y1="267.9014" y2="267.9014"/><line style="stroke:#34495E;stroke-width:1;" x1="528.457" x2="528.457" y1="267.9014" y2="282.9014"/><polygon fill="#34495E" points="524.457,272.9014,528.457,282.9014,532.457,272.9014,528.457,276.9014" style="stroke:#34495E;stroke-width:1;stroke-linejoin:miter;stroke-miterlimit:10;"/><line style="stroke:#34495E;stroke-width:1;" x1="528.457" x2="528.457" y1="316.8701" y2="321.8701"/><line style="stroke:#34495E;stroke-width:1;" x1="528.457" x2="172.8545" y1="321.8701" y2="321.8701"/><line style="stroke:#34495E;stroke-width:1;" x1="172.8545" x2="172.8545" y1="321.8701" y2="336.8701"/><polygon fill="#34495E" points="168.8545,326.8701,172.8545,336.8701,176.8545,326.8701,172.8545,330.8701" style="stroke:#34495E;stroke-width:1;stroke-linejoin:miter;stroke-miterlimit:10;"/><line style="stroke:#34495E;stroke-width:1;" x1="172.8545" x2="172.8545" y1="370.8389" y2="375.8389"/><line style="stroke:#34495E;stroke-width:1;" x1="172.8545" x2="528.457" y1="375.8389" y2="375.8389"/><line style="stroke:#34495E;stroke-width:1;" x1="528.457" x2="528.457" y1="375.8389" y2="390.8389"/><polygon fill="#34495E" points="524.457,380.8389,528.457,390.8389,532.457,380.8389,528.457,384.8389" style="stroke:#34495E;stroke-width:1;stroke-linejoin:miter;stroke-miterlimit:10;"/><text fill="#FFFFFF" font-family="sans-serif" font-size="18" font-weight="700" lengthAdjust="spacing" textLength="101.7598" x="120.9746" y="71.75">Pengguna</text><text fill="#FFFFFF" font-family="sans-serif" font-size="18" font-weight="700" lengthAdjust="spacing" textLength="69.416" x="492.749" y="71.75">Sistem</text><?plantuml-src VP7DQiCm48JlVWf1puMI7qgQKtvlXTBa1TRnrbaihSnAgZ7uuIlP2KtI9ZTB-ytCZkp9QrIBWwTlygrQ4vG2HZshXG-YFb63e_WD3ZXp5N4DQRnho6XWN5efK5PMMr6vXaDrbzaVwL0nEgT6_p3xjCKowaknWOl1y6cq6c-cB_VmhMK_WCsHF3x2ThwD9NEhYmlgt3bMDfQBHrLkqTj5jxFDwsnxAH2npMaudancqqsMTH_8PHaOkinv49-zlQF9GmNA88VhfvvdtOwSHzCbYi7Kf2jWLS1NbAeAf8McFxEIGTW2bmeAc5y6fGZITFnL35ZlHP1-yI3d5kvceWVIrvcdFQ1VTl3qA0wZvsq-HtcTV4wm1XrIOqntZapzfstRNvvxfJY3faR9GGATeuVfF3wbhNy0?></g><line style="stroke:#000000;stroke-width:2;" x1="20" x2="20" y1="466.808" y2="496.808"/><line style="stroke:#000000;stroke-width:2;" x1="323.709" x2="323.709" y1="466.808" y2="496.808"/><line style="stroke:#000000;stroke-width:2;" x1="731.205" x2="731.205" y1="466.808" y2="496.808"/><line style="stroke:#000000;stroke-width:2;" x1="20" x2="731.205" y1="496.808" y2="496.808"/></svg>